<?xml version="1.0" encoding="utf-8"?>
<svg id="master-artboard" viewBox="0 0 500 500" version="1.1" xmlns="http://www.w3.org/2000/svg" x="0px" y="0px" width="500px" height="500px" style="enable-background:new 0 0 1400 980;"><rect id="ee-background" x="0" y="0" width="500" height="500" style="fill: white; fill-opacity: 0; pointer-events: none;"/>





















<g><g transform="matrix(1, 0, 0, 1, -2.8172664852236267, -11.119513594504497)"><g transform="matrix(0.9502755403518678, 0, 0, -0.6269234418869019, 20.73301712224651, 143.5346080030099)"><g transform="matrix(1.595055818557739, 0, 0, -1.595055818557739, -958.9602732580918, 248.8279742660222)"><g id="g-1" transform="matrix(1, 0, 0, 1, 0, 0)">
	<g id="g-2">
		<path class="st0" d="M652,46c27.6,0,50,22.4,50,50s-22.4,50-50,50s-50-22.4-50-50S624.4,46,652,46z" style="fill: rgb(255, 255, 255);"/>
	</g>
</g></g><g transform="matrix(1.9999999999999998, 0, 0, -1.595055818557739, -36.39698055682318, 253.61662481439575)"><g id="g-3" transform="matrix(1, 0, 0, 1, 0, 0)">
	<g id="g-4">
		<path class="st0" d="M58,49h100v100H58V49z" style="fill: rgb(255, 255, 255);"/>
	</g>
</g></g></g><g transform="matrix(-0.9502755403518678, 0, 0, -0.6269234418869019, 488.3746069101588, 143.5346080030099)"><g transform="matrix(1.595055818557739, 0, 0, -1.595055818557739, -958.9602732580918, 248.8279742660222)"><g id="g-5" transform="matrix(1, 0, 0, 1, 0, 0)">
	<g id="g-6">
		<path class="st0" d="M652,46c27.6,0,50,22.4,50,50s-22.4,50-50,50s-50-22.4-50-50S624.4,46,652,46z" style="fill: rgb(255, 255, 255);"/>
	</g>
</g></g><g transform="matrix(1.9999999999999998, 0, 0, -1.595055818557739, -36.39698055682318, 253.61662481439575)"><g id="g-7" transform="matrix(1, 0, 0, 1, 0, 0)">
	<g id="g-8">
		<path class="st0" d="M58,49h100v100H58V49z" style="fill: rgb(255, 255, 255);"/>
	</g>
</g></g></g></g><g transform="matrix(1, 0, 0, 1, -2.8172259540647246, 168.43330508793372)"><g transform="matrix(0.9502755403518678, 0, 0, -0.6269234418869019, 20.73301712224651, 143.5346080030099)"><g transform="matrix(1.595055818557739, 0, 0, -1.595055818557739, -958.9602732580918, 248.8279742660222)"><g id="g-9" transform="matrix(1, 0, 0, 1, 0, 0)">
	<g id="g-10">
		<path class="st0" d="M652,46c27.6,0,50,22.4,50,50s-22.4,50-50,50s-50-22.4-50-50S624.4,46,652,46z" style="fill: rgb(255, 255, 255);"/>
	</g>
</g></g><g transform="matrix(1.9999999999999998, 0, 0, -1.595055818557739, -36.39698055682318, 253.61662481439575)"><g id="g-11" transform="matrix(1, 0, 0, 1, 0, 0)">
	<g id="g-12">
		<path class="st0" d="M58,49h100v100H58V49z" style="fill: rgb(255, 255, 255);"/>
	</g>
</g></g></g><g transform="matrix(-0.9502755403518678, 0, 0, -0.6269234418869019, 488.3746069101588, 143.5346080030099)"><g transform="matrix(1.595055818557739, 0, 0, -1.595055818557739, -958.9602732580918, 248.8279742660222)"><g id="g-13" transform="matrix(1, 0, 0, 1, 0, 0)">
	<g id="g-14">
		<path class="st0" d="M652,46c27.6,0,50,22.4,50,50s-22.4,50-50,50s-50-22.4-50-50S624.4,46,652,46z" style="fill: rgb(255, 255, 255);"/>
	</g>
</g></g><g transform="matrix(1.9999999999999998, 0, 0, -1.595055818557739, -36.39698055682318, 253.61662481439575)"><g id="g-15" transform="matrix(1, 0, 0, 1, 0, 0)">
	<g id="g-16">
		<path class="st0" d="M58,49h100v100H58V49z" style="fill: rgb(255, 255, 255);"/>
	</g>
</g></g></g></g><g transform="matrix(1, 0, 0, 1, -2.817215225228665, 347.88516494546207)"><g transform="matrix(0.9502755403518678, 0, 0, -0.6269234418869019, 20.73301712224651, 143.5346080030099)"><g transform="matrix(1.595055818557739, 0, 0, -1.595055818557739, -958.9602732580918, 248.8279742660222)"><g id="g-17" transform="matrix(1, 0, 0, 1, 0, 0)">
	<g id="g-18">
		<path class="st0" d="M652,46c27.6,0,50,22.4,50,50s-22.4,50-50,50s-50-22.4-50-50S624.4,46,652,46z" style="fill: rgb(255, 255, 255);"/>
	</g>
</g></g><g transform="matrix(1.9999999999999998, 0, 0, -1.595055818557739, -36.39698055682318, 253.61662481439575)"><g id="g-19" transform="matrix(1, 0, 0, 1, 0, 0)">
	<g id="g-20">
		<path class="st0" d="M58,49h100v100H58V49z" style="fill: rgb(255, 255, 255);"/>
	</g>
</g></g></g><g transform="matrix(-0.9502755403518678, 0, 0, -0.6269234418869019, 488.3746069101588, 143.5346080030099)"><g transform="matrix(1.595055818557739, 0, 0, -1.595055818557739, -958.9602732580918, 248.8279742660222)"><g id="g-21" transform="matrix(1, 0, 0, 1, 0, 0)">
	<g id="g-22">
		<path class="st0" d="M652,46c27.6,0,50,22.4,50,50s-22.4,50-50,50s-50-22.4-50-50S624.4,46,652,46z" style="fill: rgb(255, 255, 255);"/>
	</g>
</g></g><g transform="matrix(1.9999999999999998, 0, 0, -1.595055818557739, -36.39698055682318, 253.61662481439575)"><g id="g-23" transform="matrix(1, 0, 0, 1, 0, 0)">
	<g id="g-24">
		<path class="st0" d="M58,49h100v100H58V49z" style="fill: rgb(255, 255, 255);"/>
	</g>
</g></g></g></g></g></svg>