<?xml version="1.0" encoding="utf-8"?>
<svg id="master-artboard" viewBox="0 0 800 800" version="1.1" xmlns="http://www.w3.org/2000/svg" x="0px" y="0px" style="enable-background:new 0 0 841.9 595.3;" width="800px" height="800px"><rect id="ee-background" x="0" y="0" width="800" height="800" style="fill: white; fill-opacity: 0; pointer-events: none;"/><defs><style id="ee-google-fonts">@import url(https://fonts.googleapis.com/css?family=Allerta:400);</style><linearGradient id="gradient-0" gradientUnits="userSpaceOnUse" x1="67.328125" y1="405" x2="67.328125" y2="441.125" gradientTransform="matrix(-0.0006328398067936211, 1.0000001066897346, -0.2839415271721802, -0.00017996253013246796, 187.46725076719545, 355.87888066401354)">
                <stop offset="0" style="stop-color: #48319b"/>
                <stop offset="1" style="stop-color: #24184e"/>
              </linearGradient><linearGradient id="gradient-1" gradientUnits="userSpaceOnUse" x1="72.4296875" y1="405" x2="72.4296875" y2="441.125" gradientTransform="matrix(0.37130850999827747, 0.9285096857648635, -1.151190874707807, 0.46035965313092103, 544.9804762142146, 159.22736074558335)">
                <stop offset="0" style="stop-color: #48319b"/>
                <stop offset="1" style="stop-color: #24184e"/>
              </linearGradient></defs>

<linearGradient id="SVGID_1_" gradientUnits="userSpaceOnUse" x1="0" y1="595.2761" x2="1" y2="595.2761" gradientTransform="matrix(0 765.3049 -763.2442 0 454761.3125 -91.3472)">
		<stop offset="0" style="stop-color:#FFFFFF"/>
		<stop offset="6.403940e-02" style="stop-color:#FFFFFF"/>
		<stop offset="0.4314" style="stop-color:#DCF2FD"/>
		<stop offset="0.7796" style="stop-color:#C4E9FB"/>
		<stop offset="1" style="stop-color:#BBE6FB"/>
	</linearGradient>
<path d="M 266.7005615234375 306.21734619140625" style="fill-opacity: 1; stroke: rgb(0, 0, 0); stroke-opacity: 1; stroke-width: 0; paint-order: fill;"/><g transform="matrix(1.1020475625991824, 0, 0, 1.1020475625991824, -10.94275797913076, -37.362503051757805)"><g transform="matrix(9.343789100646973, 0, 0, 9.343789100646973, 4138.843780836789, -4000.854277855562)"><g transform="matrix(1, 0, 0, 1, -15.129869872332847, 1.4472049443101014)"><g transform="matrix(0.9101398106042718, 0, 0, 0.9101398106042718, 47.82366509976316, -8.12672908131907)"><path fill="#CCCCCC" d="M-490.8,497.1c-2.7,0.3-4.8,0.5-6.4,0.6c-1.6-0.1-3.8-0.3-6.4-0.6c-1.6-0.2-3.7,2.2-6,7.3&#10;&#9;c0.3,4.3,1.5,6.9,3.8,7.7c3.3,7.6,6.2,11.5,8.6,11.6c2.5-0.1,5.3-3.9,8.6-11.6c2.3-0.8,3.5-3.4,3.8-7.7&#10;&#9;C-487.1,499.3-489.1,496.9-490.8,497.1z M-491.2,500.6c0.2,0.2,0.4,0.6,0.5,1.1c0.1-0.6,0-1.1-0.1-1.3c0.2-0.1,0.5-0.2,0.8-0.3&#10;&#9;c0.4,0.4,0.6,0.9,0.4,1.5c-0.2,0.5-0.6,0.9-1.2,1c-0.6,0.1-1.1-0.2-1.4-0.7C-492,501.4-491.7,501-491.2,500.6z M-496.3,501.7&#10;&#9;c0.1-0.1,0.4,0,0.7,0.3c0.3,0.3,0.4,0.6,0.3,0.7c-0.1,0.1-0.4,0-0.7-0.3C-496.2,502.2-496.4,501.8-496.3,501.7z M-498.8,502.1&#10;&#9;c0.3-0.3,0.6-0.4,0.7-0.3s0,0.4-0.3,0.7c-0.3,0.3-0.6,0.4-0.7,0.3S-499.1,502.3-498.8,502.1z M-504.5,500.1c0.3,0.1,0.6,0.2,0.8,0.3&#10;&#9;c-0.1,0.3-0.1,0.7-0.1,1.3c0.1-0.6,0.3-0.9,0.5-1.1c0.6,0.3,0.9,0.8,0.8,1.3c-0.3,0.5-0.8,0.7-1.4,0.7c-0.6-0.1-1-0.5-1.2-1&#10;&#9;C-505.1,501-504.9,500.5-504.5,500.1z M-492.2,516.4c-0.4,1-0.7,1.8-1.1,2.6c0-0.9,0-1.8-0.5-3c-0.1,2.5-0.5,6.6-3.5,6.7&#10;&#9;c-2.9-0.1-3.4-3.4-3.4-6.5c-0.5,1.1-0.4,2-0.5,2.8c-0.4-0.7-0.7-1.6-1.1-2.6c-1.2-3.7-2.9-7.2-5.1-10.5c0.5,0.6,1.3,0.9,2.1,0.9&#10;&#9;c0.7,0,1.4-0.2,1.9-0.7c2,3.1,1.1,5.2,3.1,8.2c-0.6-3.9-0.4-7.3,0.9-10.1c0.7-0.2,1.4-0.3,2.2-0.4c0.7,0.1,1.5,0.2,2.2,0.4&#10;&#9;c1.2,2.8,1.5,6.2,0.9,10.1c2-3,1.1-5.1,3.1-8.2c0.5,0.5,1.2,0.7,1.9,0.7c0.8,0,1.5-0.3,2.1-0.9C-489.3,509.2-491,512.7-492.2,516.4z&#10;&#9;" transform="matrix(1, 0, 0, 1, 1.1368683772161603e-13, -5.684341886080802e-14)" style="fill: rgb(0, 0, 0); stroke: rgb(0, 0, 0); stroke-width: 0; fill-opacity: 1;"/></g><path fill="#CCCCCC" d="M -398.59999999999985 453.30000000000007 C -398.281494140625 456.0130310058594 -404.9025573730469 473.4943542480469 -410.0999999999999 453.7000000000001 L -410.0999999999999 470.9000000000001 C -411.7999999999999 470.0000000000001 -413.69999999999993 469.4000000000001 -415.7999999999999 469.30000000000007 C -419.5999999999999 469.1000000000001 -423.1999999999999 470.6000000000001 -425.7999999999999 473.4000000000001 C -422.8999999999999 471.7000000000001 -419.5999999999999 471.30000000000007 -416.5999999999999 472.30000000000007 L -416.5999999999999 472.30000000000007 C -416.4999999999999 472.30000000000007 -416.3999999999999 472.4000000000001 -416.2999999999999 472.4000000000001 C -413.4999999999999 473.4000000000001 -411.1999999999999 475.4000000000001 -409.9999999999999 478.1000000000001 C -409.89999999999986 478.50000000000006 -409.6999999999999 478.80000000000007 -409.4999999999999 479.2000000000001 L -409.4999999999999 479.2000000000001 L -409.4999999999999 479.2000000000001 C -408.4999999999999 481.0000000000001 -406.5999999999999 482.2000000000001 -404.39999999999986 482.2000000000001 C -401.1999999999999 482.2000000000001 -398.59999999999985 479.6000000000001 -398.59999999999985 476.4000000000001 L -398.59999999999985 453.30000000000007 Z" transform="matrix(1, 0, 0, 1, -0.3659559813585247, 5.2697658931446085)" style="fill: rgb(0, 0, 0);"/></g><path d="M -382.3104553222656 450.54437255859375" style="fill: rgb(0, 0, 0); fill-opacity: 1; stroke: rgb(0, 0, 0); stroke-opacity: 1; stroke-width: 0; paint-order: fill;"/></g><g transform="matrix(1.0149990320205688, 0, 0, 1.0149990320205688, -4.3263917291640155, -24.244386853608404)"><g transform="matrix(2.289020538330078, 0, 0, 2.289020538330078, -881.4945134035834, -7.0846343568312875)"><path d="M 543.9718627929688 190.44085693359375 C 545.951904296875 190.69418334960938 548.0585327148438 191.3375244140625 550.2918701171875 192.370849609375 C 552.5318603515625 193.4041748046875 554.6185302734375 194.86752319335938 556.5518798828125 196.76084899902344 C 558.4918823242188 198.6541748046875 560.105224609375 200.95751953125 561.391845703125 203.6708526611328 C 562.6851806640625 206.3775177001953 563.3319091796875 209.4941864013672 563.3319091796875 213.02084350585938 C 563.3319091796875 217.3208465576172 562.6851806640625 221.02084350585938 561.391845703125 224.120849609375 C 560.105224609375 227.22085571289062 558.4918823242188 229.78085327148438 556.5518798828125 231.80084228515625 C 554.6185302734375 233.8208465576172 552.5118408203125 235.4108428955078 550.2318725585938 236.5708465576172 C 547.951904296875 237.73751831054688 545.758544921875 238.620849609375 543.65185546875 239.22085571289062 C 541.5385131835938 239.8208465576172 539.6652221679688 240.18751525878906 538.0318603515625 240.3208465576172 C 536.3985595703125 240.447509765625 535.3251953125 240.51084899902344 534.8118896484375 240.51084899902344 L 499.0618896484375 240.51084899902344 L 499.0618896484375 145.40084838867188 L 526.421875 145.40084838867188 C 530.4618530273438 145.40084838867188 534.3751831054688 145.87417602539062 538.161865234375 146.8208465576172 C 541.9485473632812 147.76751708984375 545.3052368164062 149.27084350585938 548.2318725585938 151.33084106445312 C 551.1585693359375 153.39752197265625 553.4818725585938 156.0875244140625 555.201904296875 159.40084838867188 C 556.921875 162.71417236328125 557.7818603515625 166.65084838867188 557.7818603515625 171.21084594726562 C 557.7818603515625 173.8775177001953 557.3518676757812 176.30752563476562 556.4918823242188 178.5008544921875 C 555.6318969726562 180.69418334960938 554.55517578125 182.60751342773438 553.2618408203125 184.2408447265625 C 551.9752197265625 185.88084411621094 550.4918823242188 187.23751831054688 548.8118896484375 188.31085205078125 C 547.1318969726562 189.38418579101562 545.5185546875 190.09417724609375 543.9718627929688 190.44085693359375 M 533.90185546875 229.15084838867188 C 538.4618530273438 229.15084838867188 542.0318603515625 227.69085693359375 544.6118774414062 224.77084350585938 C 547.1985473632812 221.84417724609375 548.4918823242188 217.92752075195312 548.4918823242188 213.02084350585938 C 548.4918823242188 208.37417602539062 547.1585693359375 204.46084594726562 544.4918823242188 201.28085327148438 C 541.8185424804688 198.09417724609375 537.90185546875 196.5008544921875 532.7418823242188 196.5008544921875 L 514.5518798828125 196.5008544921875 L 514.5518798828125 229.15084838867188 L 533.90185546875 229.15084838867188 M 526.0318603515625 186.05084228515625 C 527.9252319335938 186.05084228515625 529.8618774414062 186.00750732421875 531.8418579101562 185.9208526611328 C 533.8218994140625 185.8341827392578 535.671875 185.36083984375 537.391845703125 184.5008544921875 C 539.1118774414062 183.64085388183594 540.508544921875 182.17752075195312 541.5818481445312 180.11083984375 C 542.661865234375 178.05084228515625 543.201904296875 175.0841827392578 543.201904296875 171.21084594726562 C 543.201904296875 169.6641845703125 542.9852294921875 168.05084228515625 542.5518798828125 166.370849609375 C 542.1185302734375 164.69085693359375 541.258544921875 163.1641845703125 539.9718627929688 161.7908477783203 C 538.6785278320312 160.41085815429688 536.8285522460938 159.2908477783203 534.421875 158.43084716796875 C 532.0151977539062 157.5708465576172 528.8318481445312 157.14083862304688 524.8718872070312 157.14083862304688 L 514.5518798828125 157.14083862304688 L 514.5518798828125 186.05084228515625 L 515.19189453125 186.05084228515625 L 526.0318603515625 186.05084228515625 Z" transform="matrix(1, 0, 0, 1, 0.7636639475822449, 5.788776874542236)" style="fill: rgb(0, 0, 0); white-space: pre; color: rgb(0, 0, 0);"/></g><path d="M 546.421875 240.51084899902344 L 528.4818725585938 206.05084228515625 C 528.228515625 206.05084228515625 527.8851928710938 206.07418823242188 527.451904296875 206.120849609375 C 527.0252075195312 206.16085815429688 526.3585205078125 206.18084716796875 525.451904296875 206.18084716796875 C 524.5518798828125 206.18084716796875 523.1752319335938 206.18084716796875 521.3218994140625 206.18084716796875 C 519.4752197265625 206.18084716796875 516.9585571289062 206.18084716796875 513.7718505859375 206.18084716796875 L 513.7718505859375 240.51084899902344 L 498.2818603515625 240.51084899902344 L 498.2818603515625 145.40084838867188 L 525.641845703125 145.40084838867188 C 529.6885375976562 145.40084838867188 533.69189453125 146.044189453125 537.65185546875 147.33084106445312 C 541.605224609375 148.62417602539062 545.15185546875 150.56085205078125 548.2918701171875 153.14083862304688 C 551.431884765625 155.72085571289062 553.9718627929688 158.84085083007812 555.911865234375 162.5008544921875 C 557.84521484375 166.1541748046875 558.8118896484375 170.26084899902344 558.8118896484375 174.8208465576172 C 558.8118896484375 181.70751953125 557.2218627929688 187.55751037597656 554.0418701171875 192.370849609375 C 550.855224609375 197.19085693359375 546.5518798828125 200.76084899902344 541.1318969726562 203.08084106445312 L 562.8118896484375 240.51084899902344 L 546.421875 240.51084899902344 M 513.7718505859375 194.83084106445312 L 527.8418579101562 194.83084106445312 C 529.7352294921875 194.83084106445312 531.6285400390625 194.50750732421875 533.5218505859375 193.86083984375 C 535.4152221679688 193.2141876220703 537.1351928710938 192.16085815429688 538.681884765625 190.7008514404297 C 540.228515625 189.2341766357422 541.4752197265625 187.19085693359375 542.421875 184.5708465576172 C 543.3685302734375 181.94418334960938 543.8418579101562 178.69418334960938 543.8418579101562 174.8208465576172 C 543.8418579101562 173.27418518066406 543.6285400390625 171.4908447265625 543.201904296875 169.47085571289062 C 542.7685546875 167.44418334960938 541.8851928710938 165.50750732421875 540.5518798828125 163.66085815429688 C 539.2185668945312 161.80752563476562 537.3485107421875 160.25750732421875 534.94189453125 159.01084899902344 C 532.528564453125 157.76419067382812 529.34521484375 157.14083862304688 525.391845703125 157.14083862304688 L 513.7718505859375 157.14083862304688 L 513.7718505859375 194.83084106445312 Z" transform="matrix(2.289020538330078, 0, 0, 2.289020538330078, -728.817138671875, 6.166016578674316)" style="fill: rgb(0, 0, 0); white-space: pre; color: rgb(0, 0, 0);"/><path d="M 514.671875 157.14083862304688 L 514.671875 187.08084106445312 L 554.421875 187.08084106445312 L 554.421875 197.66085815429688 L 514.671875 197.66085815429688 L 514.671875 228.77084350585938 L 558.421875 228.77084350585938 L 558.421875 240.51084899902344 L 498.931884765625 240.51084899902344 L 498.931884765625 145.40084838867188 L 558.421875 145.40084838867188 L 558.421875 157.14083862304688 L 514.671875 157.14083862304688 Z" transform="matrix(2.289020538330078, 0, 0, 2.289020538330078, -580.6320190429688, 6.166037559509277)" style="fill: rgb(0, 0, 0); white-space: pre; color: rgb(0, 0, 0);"/></g></g><path d="M 495.8118896484375 117.61845397949219 C 496.1318664550781 117.65845489501953 496.4685363769531 117.76178741455078 496.8218688964844 117.92845153808594 C 497.181884765625 118.08845520019531 497.51519775390625 118.32178497314453 497.8218688964844 118.62844848632812 C 498.13519287109375 118.92845153808594 498.3918762207031 119.29512023925781 498.5918884277344 119.72845458984375 C 498.7985534667969 120.16178894042969 498.9018859863281 120.65845489501953 498.9018859863281 121.21845245361328 C 498.9018859863281 121.90512084960938 498.7985534667969 122.4951171875 498.5918884277344 122.98844909667969 C 498.3918762207031 123.48844909667969 498.13519287109375 123.89845275878906 497.8218688964844 124.21845245361328 C 497.51519775390625 124.5384521484375 497.17852783203125 124.79178619384766 496.8118896484375 124.97845458984375 C 496.4518737792969 125.16511535644531 496.10186767578125 125.30511474609375 495.7618713378906 125.39845275878906 C 495.42852783203125 125.49845123291016 495.1318664550781 125.5584487915039 494.87188720703125 125.57845306396484 C 494.61187744140625 125.59844970703125 494.43853759765625 125.60845184326172 494.35186767578125 125.60845184326172 L 488.6518859863281 125.60845184326172 L 488.6518859863281 110.42845153808594 L 493.0118713378906 110.42845153808594 C 493.6585388183594 110.42845153808594 494.28521728515625 110.50511932373047 494.8918762207031 110.65845489501953 C 495.49188232421875 110.80511474609375 496.02520751953125 111.04512023925781 496.49188232421875 111.37844848632812 C 496.95855712890625 111.70511627197266 497.3318786621094 112.13511657714844 497.61187744140625 112.66844940185547 C 497.88519287109375 113.19512176513672 498.0218811035156 113.82178497314453 498.0218811035156 114.54845428466797 C 498.0218811035156 114.9751205444336 497.9518737792969 115.36178588867188 497.8118896484375 115.70845031738281 C 497.67852783203125 116.06178283691406 497.508544921875 116.36845397949219 497.3018798828125 116.62844848632812 C 497.09521484375 116.8884506225586 496.8585510253906 117.10511779785156 496.5918884277344 117.27845001220703 C 496.3251953125 117.4517822265625 496.0652160644531 117.56511688232422 495.8118896484375 117.61845397949219 M 494.2118835449219 123.79845428466797 C 494.93853759765625 123.79845428466797 495.508544921875 123.56511688232422 495.921875 123.09844970703125 C 496.335205078125 122.63178253173828 496.5418701171875 122.00511932373047 496.5418701171875 121.21845245361328 C 496.5418701171875 120.47845458984375 496.32855224609375 119.85511779785156 495.9018859863281 119.34844970703125 C 495.4752197265625 118.84178161621094 494.8485412597656 118.58845520019531 494.0218811035156 118.58845520019531 L 491.12188720703125 118.58845520019531 L 491.12188720703125 123.79845428466797 L 494.2118835449219 123.79845428466797 M 492.9518737792969 116.91844940185547 C 493.2518615722656 116.91844940185547 493.5618896484375 116.91178894042969 493.8818664550781 116.89845275878906 C 494.1952209472656 116.88511657714844 494.4885559082031 116.8084487915039 494.7618713378906 116.66844940185547 C 495.0418701171875 116.53511810302734 495.26519775390625 116.30178833007812 495.431884765625 115.96845245361328 C 495.6051940917969 115.64178466796875 495.6918640136719 115.16844940185547 495.6918640136719 114.54845428466797 C 495.6918640136719 114.30178833007812 495.6585388183594 114.04512023925781 495.5918884277344 113.77845001220703 C 495.52520751953125 113.51178741455078 495.3885498046875 113.26844787597656 495.181884765625 113.04845428466797 C 494.9752197265625 112.82845306396484 494.67852783203125 112.64845275878906 494.2918701171875 112.50845336914062 C 493.90521240234375 112.3751220703125 493.3985290527344 112.3084487915039 492.7718811035156 112.3084487915039 L 491.12188720703125 112.3084487915039 L 491.12188720703125 116.91844940185547 L 491.22186279296875 116.91844940185547 L 492.9518737792969 116.91844940185547 ZM 508.1955871582031 122.00845336914062 L 508.1955871582031 122.16844940185547 C 508.1955871582031 122.28178405761719 508.2055969238281 122.44178771972656 508.2255859375 122.64845275878906 C 508.2389221191406 122.86178588867188 508.2655944824219 123.07845306396484 508.3055725097656 123.29845428466797 C 508.3455810546875 123.5184555053711 508.4089050292969 123.71845245361328 508.4955749511719 123.89845275878906 C 508.58892822265625 124.07845306396484 508.70892333984375 124.19512176513672 508.8555908203125 124.24845123291016 L 508.1955871582031 125.62844848632812 C 508.0222473144531 125.62844848632812 507.8355712890625 125.58845520019531 507.6355895996094 125.50845336914062 C 507.4355773925781 125.42178344726562 507.24224853515625 125.30511474609375 507.0555725097656 125.15845489501953 C 506.8689270019531 125.00511932373047 506.7122497558594 124.83512115478516 506.5855712890625 124.64845275878906 C 506.4522399902344 124.46178436279297 506.3522644042969 124.25845336914062 506.28558349609375 124.0384521484375 C 506.1922607421875 124.27178192138672 506.0222473144531 124.48844909667969 505.77557373046875 124.6884536743164 C 505.53558349609375 124.8884506225586 505.2655944824219 125.06845092773438 504.965576171875 125.22845458984375 C 504.66558837890625 125.3884506225586 504.33892822265625 125.50845336914062 503.985595703125 125.58845520019531 C 503.638916015625 125.66844940185547 503.312255859375 125.70845031738281 503.0055847167969 125.70845031738281 C 502.5389099121094 125.70845031738281 502.0922546386719 125.64845275878906 501.66558837890625 125.52845001220703 C 501.23223876953125 125.40178680419922 500.8489074707031 125.2017822265625 500.5155944824219 124.92845153808594 C 500.18890380859375 124.65512084960938 499.9322509765625 124.29178619384766 499.7455749511719 123.83845520019531 C 499.5589294433594 123.38511657714844 499.465576171875 122.82845306396484 499.465576171875 122.16844940185547 C 499.465576171875 121.53511810302734 499.5989074707031 120.98844909667969 499.8655700683594 120.52845001220703 C 500.138916015625 120.06845092773438 500.48223876953125 119.69178771972656 500.8955993652344 119.39845275878906 C 501.3155822753906 119.10511779785156 501.79559326171875 118.88511657714844 502.3355712890625 118.73844909667969 C 502.8689270019531 118.59844970703125 503.4089050292969 118.52845001220703 503.9555969238281 118.52845001220703 L 505.7055969238281 118.52845001220703 C 505.7055969238281 117.85511779785156 505.6722412109375 117.31845092773438 505.6055908203125 116.91844940185547 C 505.5389099121094 116.51844787597656 505.4222412109375 116.2251205444336 505.2555847167969 116.0384521484375 C 505.08892822265625 115.85845184326172 504.8855895996094 115.74178314208984 504.6455993652344 115.6884536743164 C 504.40557861328125 115.64178466796875 504.12225341796875 115.61845397949219 503.79559326171875 115.61845397949219 C 503.4889221191406 115.61845397949219 503.2022399902344 115.65512084960938 502.9355773925781 115.72845458984375 C 502.6689147949219 115.8084487915039 502.4222412109375 115.89845275878906 502.1955871582031 115.99845123291016 C 501.96893310546875 116.10511779785156 501.7689208984375 116.21845245361328 501.5955810546875 116.33845520019531 C 501.4289245605469 116.46511840820312 501.30224609375 116.56178283691406 501.215576171875 116.62844848632812 L 500.29559326171875 115.20845031738281 C 500.4289245605469 115.05511474609375 500.63226318359375 114.90178680419922 500.90557861328125 114.74845123291016 C 501.1855773925781 114.58845520019531 501.50225830078125 114.44512176513672 501.8555908203125 114.31845092773438 C 502.215576171875 114.19845581054688 502.6055908203125 114.09844970703125 503.02557373046875 114.01844787597656 C 503.43890380859375 113.94512176513672 503.87225341796875 113.90845489501953 504.3255920410156 113.90845489501953 C 504.7389221191406 113.90845489501953 505.1422424316406 113.9517822265625 505.53558349609375 114.0384521484375 C 505.9222412109375 114.11845397949219 506.2789306640625 114.25511932373047 506.6055908203125 114.44845581054688 C 506.92559814453125 114.64178466796875 507.2055969238281 114.89845275878906 507.4455871582031 115.21845245361328 C 507.6855773925781 115.5384521484375 507.8555908203125 115.9384536743164 507.9555969238281 116.41844940185547 C 508.0489196777344 116.90512084960938 508.11224365234375 117.39178466796875 508.1455993652344 117.87844848632812 C 508.1789245605469 118.36511993408203 508.1955871582031 118.84844970703125 508.1955871582031 119.32845306396484 L 508.1955871582031 122.00845336914062 M 505.7255859375 119.98844909667969 L 504.41558837890625 119.98844909667969 C 504.1355895996094 119.98844909667969 503.8455810546875 120.01512145996094 503.54559326171875 120.06845092773438 C 503.2455749511719 120.12178802490234 502.965576171875 120.2251205444336 502.7055969238281 120.37844848632812 C 502.43890380859375 120.53178405761719 502.2222595214844 120.74845123291016 502.0555725097656 121.02845001220703 C 501.88226318359375 121.3084487915039 501.79559326171875 121.66844940185547 501.79559326171875 122.10845184326172 C 501.79559326171875 122.79512023925781 501.94891357421875 123.2884521484375 502.2555847167969 123.58845520019531 C 502.56890869140625 123.8884506225586 503.0189208984375 124.0384521484375 503.6055908203125 124.0384521484375 C 504.0189208984375 124.0384521484375 504.41558837890625 123.9317855834961 504.79559326171875 123.71845245361328 C 505.1689147949219 123.49845123291016 505.4789123535156 123.2017822265625 505.7255859375 122.82845306396484 L 505.7255859375 119.98844909667969 ZM 516.1770629882812 116.50845336914062 C 515.7904052734375 116.3951187133789 515.32373046875 116.331787109375 514.7770385742188 116.31845092773438 C 514.28369140625 116.31845092773438 513.793701171875 116.37844848632812 513.3070678710938 116.49845123291016 C 512.8203735351562 116.61178588867188 512.4303588867188 116.80511474609375 512.1370239257812 117.07845306396484 L 512.1370239257812 121.48844909667969 L 512.1370239257812 121.52845001220703 L 512.1370239257812 125.60845184326172 L 509.64703369140625 125.60845184326172 L 509.64703369140625 113.98844909667969 L 511.8770446777344 113.98844909667969 L 512.1370239257812 115.1884536743164 C 512.3436889648438 114.98178100585938 512.5603637695312 114.79512023925781 512.7870483398438 114.62844848632812 C 513.0137329101562 114.46845245361328 513.2803955078125 114.33512115478516 513.5870361328125 114.22845458984375 C 513.8870239257812 114.12844848632812 514.2437133789062 114.04845428466797 514.6570434570312 113.98844909667969 C 515.063720703125 113.93511962890625 515.5703735351562 113.90845489501953 516.1770629882812 113.90845489501953 L 516.1770629882812 116.50845336914062 ZM 519.6669311523438 122.08845520019531 C 519.6669311523438 122.55511474609375 519.7269287109375 122.91844940185547 519.846923828125 123.17845153808594 C 519.9735717773438 123.4384536743164 520.1502075195312 123.6384506225586 520.3768920898438 123.77845001220703 C 520.6035766601562 123.91178894042969 520.85693359375 123.9951171875 521.1369018554688 124.02845001220703 C 521.4169311523438 124.06845092773438 521.7169189453125 124.08845520019531 522.0369262695312 124.08845520019531 L 522.0369262695312 125.60845184326172 C 521.85693359375 125.63511657714844 521.6768798828125 125.65512084960938 521.4968872070312 125.66844940185547 C 521.3435668945312 125.6817855834961 521.1602172851562 125.69178771972656 520.9468994140625 125.69844818115234 C 520.740234375 125.70511627197266 520.5335693359375 125.70845031738281 520.326904296875 125.70845031738281 C 520.1202392578125 125.70845031738281 519.9102172851562 125.7017822265625 519.6968994140625 125.6884536743164 C 519.4835815429688 125.67511749267578 519.3002319335938 125.65512084960938 519.1469116210938 125.62844848632812 C 518.6802368164062 125.54845428466797 518.31689453125 125.3451156616211 518.056884765625 125.0184555053711 C 517.796875 124.69844818115234 517.6002197265625 124.34178161621094 517.4669189453125 123.94844818115234 C 517.3402099609375 123.56178283691406 517.26025390625 123.1817855834961 517.2269287109375 122.8084487915039 C 517.1935424804688 122.43511962890625 517.1768798828125 122.1451187133789 517.1768798828125 121.9384536743164 L 517.1768798828125 115.67845153808594 L 515.6469116210938 115.67845153808594 L 515.6469116210938 113.98844909667969 L 517.1768798828125 113.98844909667969 L 517.1768798828125 110.69845581054688 L 519.6669311523438 110.69845581054688 L 519.6669311523438 113.98844909667969 L 521.5169067382812 113.98844909667969 L 521.5169067382812 115.67845153808594 L 519.6669311523438 115.67845153808594 L 519.6669311523438 122.08845520019531 ZM 527.64013671875 113.92845153808594 C 528.4401245117188 113.92845153808594 529.16015625 114.08512115478516 529.8001098632812 114.39845275878906 C 530.44677734375 114.70511627197266 530.996826171875 115.1251220703125 531.4501342773438 115.65845489501953 C 531.9034423828125 116.19845581054688 532.2534790039062 116.82511901855469 532.5001220703125 117.5384521484375 C 532.746826171875 118.25178527832031 532.8701171875 119.01844787597656 532.8701171875 119.83845520019531 C 532.8701171875 120.66511535644531 532.7401123046875 121.4384536743164 532.4801635742188 122.15845489501953 C 532.2201538085938 122.87844848632812 531.8534545898438 123.50178527832031 531.380126953125 124.02845001220703 C 530.9067993164062 124.56178283691406 530.3434448242188 124.9751205444336 529.6901245117188 125.2684555053711 C 529.0368041992188 125.56178283691406 528.3134765625 125.70845031738281 527.5201416015625 125.70845031738281 C 526.706787109375 125.70845031738281 525.966796875 125.5584487915039 525.3001098632812 125.25845336914062 C 524.6334838867188 124.95845031738281 524.0701293945312 124.5384521484375 523.610107421875 123.99845123291016 C 523.150146484375 123.46511840820312 522.7968139648438 122.84178161621094 522.5501098632812 122.12844848632812 C 522.303466796875 121.41511535644531 522.1801147460938 120.6384506225586 522.1801147460938 119.79845428466797 C 522.1801147460938 118.96511840820312 522.3134765625 118.1817855834961 522.5801391601562 117.44845581054688 C 522.8534545898438 116.72178649902344 523.226806640625 116.1017837524414 523.7001342773438 115.58845520019531 C 524.1734619140625 115.07511901855469 524.746826171875 114.66844940185547 525.4201049804688 114.36845397949219 C 526.0934448242188 114.07511901855469 526.83349609375 113.92845153808594 527.64013671875 113.92845153808594 M 527.4801635742188 123.75845336914062 C 527.8867797851562 123.75845336914062 528.2601318359375 123.65845489501953 528.6001586914062 123.45845031738281 C 528.9334716796875 123.25845336914062 529.2201538085938 122.9817886352539 529.4601440429688 122.62844848632812 C 529.7001342773438 122.28178405761719 529.8934936523438 121.86845397949219 530.0401611328125 121.3884506225586 C 530.1868286132812 120.90845489501953 530.2601318359375 120.39178466796875 530.2601318359375 119.83845520019531 C 530.2601318359375 119.29178619384766 530.1934814453125 118.77845001220703 530.0601196289062 118.29845428466797 C 529.9334716796875 117.81845092773438 529.7567749023438 117.3951187133789 529.5301513671875 117.02845001220703 C 529.303466796875 116.66844940185547 529.0234375 116.37844848632812 528.6901245117188 116.15845489501953 C 528.3634643554688 115.9384536743164 527.9934692382812 115.82845306396484 527.5801391601562 115.82845306396484 C 527.1668090820312 115.82845306396484 526.7901611328125 115.9317855834961 526.4501342773438 116.1384506225586 C 526.1034545898438 116.33845520019531 525.8101196289062 116.61511993408203 525.5701293945312 116.96845245361328 C 525.3301391601562 117.32178497314453 525.1434936523438 117.73511505126953 525.0101318359375 118.20845031738281 C 524.8834838867188 118.6817855834961 524.8201293945312 119.19178771972656 524.8201293945312 119.73844909667969 C 524.8201293945312 120.28511810302734 524.8768310546875 120.80511474609375 524.9901123046875 121.29845428466797 C 525.110107421875 121.78511810302734 525.2868041992188 122.20511627197266 525.5201416015625 122.5584487915039 C 525.7534790039062 122.91844940185547 526.0301513671875 123.20845031738281 526.3501586914062 123.42845153808594 C 526.6768188476562 123.64845275878906 527.053466796875 123.75845336914062 527.4801635742188 123.75845336914062 ZM 543.238525390625 125.60845184326172 L 540.728515625 125.60845184326172 L 540.728515625 119.2884521484375 C 540.728515625 118.82178497314453 540.70849609375 118.3751220703125 540.6685180664062 117.94845581054688 C 540.621826171875 117.52178192138672 540.525146484375 117.1451187133789 540.3785400390625 116.81845092773438 C 540.2251586914062 116.48512268066406 540.0184936523438 116.2251205444336 539.7584838867188 116.0384521484375 C 539.49853515625 115.85845184326172 539.1351928710938 115.76844787597656 538.6685180664062 115.76844787597656 C 538.5151977539062 115.76844787597656 538.3184814453125 115.7884521484375 538.0784912109375 115.82845306396484 C 537.8385009765625 115.86845397949219 537.5918579101562 115.92845153808594 537.3385009765625 116.00845336914062 C 537.085205078125 116.0951156616211 536.8451538085938 116.19845581054688 536.6185302734375 116.31845092773438 C 536.391845703125 116.44512176513672 536.2218627929688 116.58845520019531 536.1085205078125 116.74845123291016 L 536.1085205078125 116.87844848632812 L 536.1085205078125 116.91844940185547 L 536.1085205078125 121.48844909667969 L 536.1085205078125 121.52845001220703 L 536.1085205078125 125.60845184326172 L 533.6185302734375 125.60845184326172 L 533.6185302734375 113.98844909667969 L 535.8485107421875 113.98844909667969 L 536.1085205078125 115.16844940185547 C 536.2752075195312 115.01512145996094 536.4851684570312 114.85845184326172 536.738525390625 114.69845581054688 C 536.9918212890625 114.54512023925781 537.2718505859375 114.40512084960938 537.5784912109375 114.27845001220703 C 537.8785400390625 114.15845489501953 538.1851806640625 114.0584487915039 538.49853515625 113.97845458984375 C 538.8184814453125 113.90512084960938 539.1285400390625 113.86845397949219 539.4285278320312 113.86845397949219 C 540.0485229492188 113.86845397949219 540.5684814453125 113.99845123291016 540.988525390625 114.25845336914062 C 541.4151611328125 114.51844787597656 541.8418579101562 114.85511779785156 542.2684936523438 115.26844787597656 C 542.5018310546875 115.50178527832031 542.6851806640625 115.77178192138672 542.8184814453125 116.07845306396484 C 542.9451904296875 116.39178466796875 543.0418701171875 116.71511840820312 543.1085205078125 117.04845428466797 C 543.1685180664062 117.3884506225586 543.2052001953125 117.72845458984375 543.218505859375 118.06845092773438 C 543.2318725585938 118.41511535644531 543.238525390625 118.75178527832031 543.238525390625 119.07845306396484 L 543.238525390625 125.19844818115234 L 543.238525390625 125.60845184326172 ZM 555.1177368164062 125.60845184326172 L 552.2477416992188 120.10845184326172 C 552.207763671875 120.10845184326172 552.1544189453125 120.11178588867188 552.0877685546875 120.11845397949219 C 552.0211181640625 120.1251220703125 551.9144287109375 120.12844848632812 551.7677612304688 120.12844848632812 C 551.62109375 120.12844848632812 551.4010620117188 120.12844848632812 551.1077880859375 120.12844848632812 C 550.814453125 120.12844848632812 550.4144287109375 120.12844848632812 549.9077758789062 120.12844848632812 L 549.9077758789062 125.60845184326172 L 547.427734375 125.60845184326172 L 547.427734375 110.42845153808594 L 551.7977294921875 110.42845153808594 C 552.4443969726562 110.42845153808594 553.0844116210938 110.53178405761719 553.7177734375 110.73844909667969 C 554.3444213867188 110.94512176513672 554.9077758789062 111.25511932373047 555.4077758789062 111.66844940185547 C 555.9144287109375 112.07511901855469 556.3211059570312 112.57178497314453 556.6277465820312 113.15845489501953 C 556.9344482421875 113.7451171875 557.0877685546875 114.40178680419922 557.0877685546875 115.12844848632812 C 557.0877685546875 116.22178649902344 556.8344116210938 117.15512084960938 556.3277587890625 117.92845153808594 C 555.8211059570312 118.69512176513672 555.1343994140625 119.26512145996094 554.2677612304688 119.6384506225586 L 557.727783203125 125.60845184326172 L 555.1177368164062 125.60845184326172 M 549.9077758789062 118.31845092773438 L 552.1477661132812 118.31845092773438 C 552.44775390625 118.31845092773438 552.7510986328125 118.26512145996094 553.0577392578125 118.15845489501953 C 553.3577880859375 118.0584487915039 553.631103515625 117.89178466796875 553.8777465820312 117.65845489501953 C 554.1244506835938 117.42511749267578 554.3244018554688 117.09844970703125 554.477783203125 116.67845153808594 C 554.6244506835938 116.25845336914062 554.69775390625 115.74178314208984 554.69775390625 115.12844848632812 C 554.69775390625 114.88178253173828 554.6644287109375 114.5951156616211 554.5977783203125 114.26844787597656 C 554.5310668945312 113.94845581054688 554.39111328125 113.64178466796875 554.177734375 113.34844970703125 C 553.9644165039062 113.04845428466797 553.6644287109375 112.79845428466797 553.2777709960938 112.59844970703125 C 552.8977661132812 112.40512084960938 552.39111328125 112.3084487915039 551.7577514648438 112.3084487915039 L 549.9077758789062 112.3084487915039 L 549.9077758789062 118.31845092773438 ZM 563.31494140625 113.86845397949219 C 564.248291015625 113.86845397949219 565.0715942382812 114.0584487915039 565.784912109375 114.4384536743164 C 566.498291015625 114.81178283691406 567.0849609375 115.31178283691406 567.544921875 115.9384536743164 C 568.0049438476562 116.56511688232422 568.3349609375 117.28511810302734 568.534912109375 118.09844970703125 C 568.7349243164062 118.91844940185547 568.7749633789062 119.76844787597656 568.6549072265625 120.64845275878906 L 560.574951171875 120.64845275878906 C 560.574951171875 121.08845520019531 560.6582641601562 121.49178314208984 560.824951171875 121.85845184326172 C 560.9915771484375 122.2317886352539 561.2149658203125 122.55178833007812 561.4949340820312 122.81845092773438 C 561.7749633789062 123.08512115478516 562.1116333007812 123.29512023925781 562.5049438476562 123.44844818115234 C 562.8982543945312 123.5951156616211 563.3182983398438 123.66844940185547 563.7649536132812 123.66844940185547 C 563.9182739257812 123.66844940185547 564.1082763671875 123.65178680419922 564.3349609375 123.61845397949219 C 564.5615844726562 123.58512115478516 564.8015747070312 123.52511596679688 565.054931640625 123.4384536743164 C 565.3082885742188 123.3451156616211 565.5615844726562 123.2317886352539 565.81494140625 123.09844970703125 C 566.074951171875 122.95845031738281 566.2982788085938 122.79178619384766 566.4849243164062 122.59844970703125 L 567.3949584960938 123.97845458984375 C 566.9415893554688 124.54512023925781 566.41162109375 124.97178649902344 565.804931640625 125.25845336914062 C 565.2049560546875 125.54512023925781 564.4382934570312 125.6884536743164 563.5049438476562 125.6884536743164 C 562.7449340820312 125.6884536743164 562.0382690429688 125.53511810302734 561.3849487304688 125.22845458984375 C 560.7249145507812 124.92178344726562 560.16162109375 124.49845123291016 559.6949462890625 123.95845031738281 C 559.228271484375 123.42511749267578 558.8549194335938 122.80178833007812 558.574951171875 122.08845520019531 C 558.3015747070312 121.3751220703125 558.1649169921875 120.60511779785156 558.1649169921875 119.77845001220703 C 558.1649169921875 118.97178649902344 558.3015747070312 118.20511627197266 558.574951171875 117.47845458984375 C 558.8549194335938 116.75845336914062 559.2249145507812 116.13178253173828 559.6849365234375 115.59844970703125 C 560.1449584960938 115.06511688232422 560.6882934570312 114.64178466796875 561.31494140625 114.32845306396484 C 561.9482421875 114.02178192138672 562.6149291992188 113.86845397949219 563.31494140625 113.86845397949219 M 566.3449096679688 118.82845306396484 C 566.3449096679688 118.46178436279297 566.2749633789062 118.09844970703125 566.1349487304688 117.73844909667969 C 566.0015869140625 117.38511657714844 565.81494140625 117.06178283691406 565.574951171875 116.76844787597656 C 565.3349609375 116.48178100585938 565.0416259765625 116.25178527832031 564.6949462890625 116.07845306396484 C 564.3549194335938 115.91178894042969 563.9849243164062 115.82178497314453 563.5849609375 115.8084487915039 C 563.1582641601562 115.8084487915039 562.7682495117188 115.8884506225586 562.4149169921875 116.04845428466797 C 562.054931640625 116.21511840820312 561.7449340820312 116.43511962890625 561.4849243164062 116.70845031738281 C 561.2249145507812 116.98178100585938 561.0216064453125 117.3084487915039 560.8749389648438 117.6884536743164 C 560.728271484375 118.06845092773438 560.6549072265625 118.44845581054688 560.6549072265625 118.82845306396484 L 566.3449096679688 118.82845306396484 ZM 579.79443359375 117.51844787597656 C 579.9611206054688 118.1451187133789 580.04443359375 118.8517837524414 580.04443359375 119.6384506225586 C 580.04443359375 120.41844940185547 579.9511108398438 121.17511749267578 579.7644653320312 121.90845489501953 C 579.58447265625 122.64178466796875 579.304443359375 123.29178619384766 578.9244384765625 123.85845184326172 C 578.54443359375 124.41844940185547 578.0711059570312 124.86845397949219 577.5044555664062 125.20845031738281 C 576.9310913085938 125.54178619384766 576.2611083984375 125.70845031738281 575.4944458007812 125.70845031738281 C 575.0811157226562 125.70845031738281 574.6844482421875 125.66844940185547 574.304443359375 125.58845520019531 C 573.9177856445312 125.50845336914062 573.574462890625 125.3951187133789 573.2744750976562 125.24845123291016 C 572.9677734375 125.1017837524414 572.7144775390625 124.94512176513672 572.5144653320312 124.77845001220703 C 572.3211059570312 124.60511779785156 572.2011108398438 124.42178344726562 572.1544799804688 124.22845458984375 L 572.1544799804688 130.17845153808594 L 569.6444702148438 130.17845153808594 L 569.6444702148438 113.98844909667969 L 571.8944702148438 113.98844909667969 L 572.1544799804688 115.16844940185547 C 572.4344482421875 114.78178405761719 572.8511352539062 114.47178649902344 573.4044799804688 114.23844909667969 C 573.957763671875 114.00511932373047 574.5711059570312 113.8884506225586 575.2444458007812 113.8884506225586 C 575.69775390625 113.8884506225586 576.1577758789062 113.9517822265625 576.6244506835938 114.07845306396484 C 577.0911254882812 114.19845581054688 577.5277709960938 114.40178680419922 577.9344482421875 114.6884536743164 C 578.3411254882812 114.98178100585938 578.707763671875 115.36178588867188 579.034423828125 115.82845306396484 C 579.3677978515625 116.29512023925781 579.62109375 116.85845184326172 579.79443359375 117.51844787597656 M 574.6744384765625 123.77845001220703 C 575.0811157226562 123.77845001220703 575.4544677734375 123.67511749267578 575.79443359375 123.46845245361328 C 576.1278076171875 123.26178741455078 576.4144287109375 122.9817886352539 576.6544799804688 122.62844848632812 C 576.8944702148438 122.28178405761719 577.08447265625 121.86511993408203 577.2244262695312 121.37844848632812 C 577.3644409179688 120.89178466796875 577.4344482421875 120.37178802490234 577.4344482421875 119.81845092773438 C 577.4344482421875 119.28511810302734 577.37109375 118.77845001220703 577.2444458007812 118.29845428466797 C 577.1244506835938 117.81845092773438 576.9511108398438 117.39178466796875 576.7244262695312 117.01844787597656 C 576.497802734375 116.65178680419922 576.2211303710938 116.35845184326172 575.8944702148438 116.1384506225586 C 575.574462890625 115.91844940185547 575.2011108398438 115.8084487915039 574.7744750976562 115.8084487915039 C 574.3611450195312 115.8084487915039 573.9844360351562 115.91178894042969 573.6444702148438 116.11845397949219 C 573.2977905273438 116.31845092773438 573.0010986328125 116.5951156616211 572.7544555664062 116.94845581054688 C 572.5078125 117.29512023925781 572.3178100585938 117.70845031738281 572.1844482421875 118.1884536743164 C 572.0578002929688 118.66178894042969 571.9944458007812 119.17178344726562 571.9944458007812 119.71845245361328 C 571.9944458007812 120.26512145996094 572.0511474609375 120.78178405761719 572.1644287109375 121.26844787597656 C 572.284423828125 121.76178741455078 572.4611206054688 122.19178771972656 572.6944580078125 122.5584487915039 C 572.9277954101562 122.9317855834961 573.207763671875 123.22845458984375 573.534423828125 123.44844818115234 C 573.8677978515625 123.66844940185547 574.247802734375 123.77845001220703 574.6744384765625 123.77845001220703 ZM 583.6597290039062 122.08845520019531 C 583.6597290039062 122.55511474609375 583.7197265625 122.91844940185547 583.8397216796875 123.17845153808594 C 583.9663696289062 123.4384536743164 584.1430053710938 123.6384506225586 584.3696899414062 123.77845001220703 C 584.5963745117188 123.91178894042969 584.8497314453125 123.9951171875 585.1296997070312 124.02845001220703 C 585.4097290039062 124.06845092773438 585.709716796875 124.08845520019531 586.0297241210938 124.08845520019531 L 586.0297241210938 125.60845184326172 C 585.8497314453125 125.63511657714844 585.669677734375 125.65512084960938 585.4896850585938 125.66844940185547 C 585.3363647460938 125.6817855834961 585.1530151367188 125.69178771972656 584.939697265625 125.69844818115234 C 584.7330322265625 125.70511627197266 584.5263671875 125.70845031738281 584.3197021484375 125.70845031738281 C 584.113037109375 125.70845031738281 583.9030151367188 125.7017822265625 583.689697265625 125.6884536743164 C 583.4763793945312 125.67511749267578 583.2930297851562 125.65512084960938 583.1397094726562 125.62844848632812 C 582.6730346679688 125.54845428466797 582.3096923828125 125.3451156616211 582.0496826171875 125.0184555053711 C 581.7896728515625 124.69844818115234 581.593017578125 124.34178161621094 581.459716796875 123.94844818115234 C 581.3330078125 123.56178283691406 581.2530517578125 123.1817855834961 581.2197265625 122.8084487915039 C 581.1863403320312 122.43511962890625 581.169677734375 122.1451187133789 581.169677734375 121.9384536743164 L 581.169677734375 115.67845153808594 L 579.6397094726562 115.67845153808594 L 579.6397094726562 113.98844909667969 L 581.169677734375 113.98844909667969 L 581.169677734375 110.69845581054688 L 583.6597290039062 110.69845581054688 L 583.6597290039062 113.98844909667969 L 585.5097045898438 113.98844909667969 L 585.5097045898438 115.67845153808594 L 583.6597290039062 115.67845153808594 L 583.6597290039062 122.08845520019531 ZM 588.9529418945312 125.60845184326172 L 586.4429321289062 125.60845184326172 L 586.4429321289062 113.98844909667969 L 588.9529418945312 113.98844909667969 L 588.9529418945312 125.60845184326172 M 589.1829223632812 110.2884521484375 C 589.1829223632812 110.69512176513672 589.0396118164062 111.04178619384766 588.7529296875 111.32845306396484 C 588.4595947265625 111.60845184326172 588.109619140625 111.74845123291016 587.7029418945312 111.74845123291016 C 587.2896118164062 111.74845123291016 586.9429321289062 111.60511779785156 586.6629028320312 111.31845092773438 C 586.3762817382812 111.02511596679688 586.23291015625 110.6817855834961 586.23291015625 110.2884521484375 C 586.23291015625 109.8751220703125 586.3795776367188 109.52511596679688 586.6729125976562 109.23844909667969 C 586.9595947265625 108.94511413574219 587.3029174804688 108.79845428466797 587.7029418945312 108.79845428466797 C 588.109619140625 108.79845428466797 588.4595947265625 108.94511413574219 588.7529296875 109.23844909667969 C 589.0396118164062 109.52511596679688 589.1829223632812 109.8751220703125 589.1829223632812 110.2884521484375 ZM 592.4406127929688 122.06845092773438 C 592.4406127929688 122.53511810302734 592.5039672851562 122.90178680419922 592.630615234375 123.16844940185547 C 592.7506103515625 123.43511962890625 592.9205932617188 123.63511657714844 593.140625 123.7684555053711 C 593.360595703125 123.8951187133789 593.610595703125 123.97845458984375 593.890625 124.0184555053711 C 594.1773071289062 124.06511688232422 594.4839477539062 124.08845520019531 594.8106079101562 124.08845520019531 L 594.8106079101562 125.60845184326172 C 594.630615234375 125.63511657714844 594.447265625 125.65512084960938 594.2606201171875 125.66844940185547 C 594.1072998046875 125.6817855834961 593.9273071289062 125.69178771972656 593.7206420898438 125.69844818115234 C 593.5139770507812 125.70511627197266 593.3073120117188 125.70845031738281 593.1006469726562 125.70845031738281 C 592.8939819335938 125.70845031738281 592.6873168945312 125.7017822265625 592.4806518554688 125.6884536743164 C 592.27392578125 125.67511749267578 592.0906372070312 125.65512084960938 591.9306030273438 125.62844848632812 C 591.4639282226562 125.53511810302734 591.1006469726562 125.32845306396484 590.8406372070312 125.00845336914062 C 590.573974609375 124.69512176513672 590.3739624023438 124.34178161621094 590.2406005859375 123.94844818115234 C 590.1006469726562 123.56178283691406 590.0139770507812 123.1817855834961 589.9806518554688 122.8084487915039 C 589.947265625 122.43511962890625 589.9306030273438 122.1451187133789 589.9306030273438 121.9384536743164 L 589.9306030273438 121.69844818115234 L 589.9306030273438 109.60845184326172 L 592.4406127929688 109.60845184326172 L 592.4406127929688 122.06845092773438 ZM 599.8211059570312 113.86845397949219 C 600.7544555664062 113.86845397949219 601.5777587890625 114.0584487915039 602.2910766601562 114.4384536743164 C 603.0044555664062 114.81178283691406 603.5911254882812 115.31178283691406 604.0510864257812 115.9384536743164 C 604.5111083984375 116.56511688232422 604.8411254882812 117.28511810302734 605.0410766601562 118.09844970703125 C 605.2410888671875 118.91844940185547 605.2811279296875 119.76844787597656 605.1610717773438 120.64845275878906 L 597.0811157226562 120.64845275878906 C 597.0811157226562 121.08845520019531 597.1644287109375 121.49178314208984 597.3311157226562 121.85845184326172 C 597.4977416992188 122.2317886352539 597.7211303710938 122.55178833007812 598.0010986328125 122.81845092773438 C 598.2811279296875 123.08512115478516 598.6177978515625 123.29512023925781 599.0111083984375 123.44844818115234 C 599.4044189453125 123.5951156616211 599.824462890625 123.66844940185547 600.2711181640625 123.66844940185547 C 600.4244384765625 123.66844940185547 600.6144409179688 123.65178680419922 600.8411254882812 123.61845397949219 C 601.0677490234375 123.58512115478516 601.3077392578125 123.52511596679688 601.5610961914062 123.4384536743164 C 601.814453125 123.3451156616211 602.0677490234375 123.2317886352539 602.3211059570312 123.09844970703125 C 602.5811157226562 122.95845031738281 602.804443359375 122.79178619384766 602.9910888671875 122.59844970703125 L 603.901123046875 123.97845458984375 C 603.44775390625 124.54512023925781 602.9177856445312 124.97178649902344 602.3110961914062 125.25845336914062 C 601.7111206054688 125.54512023925781 600.9444580078125 125.6884536743164 600.0111083984375 125.6884536743164 C 599.2510986328125 125.6884536743164 598.54443359375 125.53511810302734 597.89111328125 125.22845458984375 C 597.2310791015625 124.92178344726562 596.6677856445312 124.49845123291016 596.2011108398438 123.95845031738281 C 595.7344360351562 123.42511749267578 595.361083984375 122.80178833007812 595.0811157226562 122.08845520019531 C 594.8077392578125 121.3751220703125 594.6710815429688 120.60511779785156 594.6710815429688 119.77845001220703 C 594.6710815429688 118.97178649902344 594.8077392578125 118.20511627197266 595.0811157226562 117.47845458984375 C 595.361083984375 116.75845336914062 595.7310791015625 116.13178253173828 596.1911010742188 115.59844970703125 C 596.651123046875 115.06511688232422 597.1944580078125 114.64178466796875 597.8211059570312 114.32845306396484 C 598.4544067382812 114.02178192138672 599.12109375 113.86845397949219 599.8211059570312 113.86845397949219 M 602.85107421875 118.82845306396484 C 602.85107421875 118.46178436279297 602.7811279296875 118.09844970703125 602.64111328125 117.73844909667969 C 602.5077514648438 117.38511657714844 602.3211059570312 117.06178283691406 602.0811157226562 116.76844787597656 C 601.8411254882812 116.48178100585938 601.5477905273438 116.25178527832031 601.2011108398438 116.07845306396484 C 600.861083984375 115.91178894042969 600.4910888671875 115.82178497314453 600.0911254882812 115.8084487915039 C 599.6644287109375 115.8084487915039 599.2744140625 115.8884506225586 598.9210815429688 116.04845428466797 C 598.5610961914062 116.21511840820312 598.2510986328125 116.43511962890625 597.9910888671875 116.70845031738281 C 597.7310791015625 116.98178100585938 597.5277709960938 117.3084487915039 597.381103515625 117.6884536743164 C 597.2344360351562 118.06845092773438 597.1610717773438 118.44845581054688 597.1610717773438 118.82845306396484 L 602.85107421875 118.82845306396484 ZM 605.9205932617188 124.67845153808594 L 606.9805908203125 123.00845336914062 C 607.2539672851562 123.2017822265625 607.5772705078125 123.38178253173828 607.9506225585938 123.54845428466797 C 608.3306274414062 123.71511840820312 608.8073120117188 123.79845428466797 609.380615234375 123.79845428466797 C 610.140625 123.79845428466797 610.7339477539062 123.6817855834961 611.16064453125 123.44844818115234 C 611.5806274414062 123.21511840820312 611.7905883789062 122.87178802490234 611.7905883789062 122.41844940185547 C 611.7905883789062 122.08512115478516 611.6672973632812 121.81845092773438 611.4205932617188 121.61845397949219 C 611.1739501953125 121.42511749267578 610.8639526367188 121.25511932373047 610.4906005859375 121.10845184326172 C 610.110595703125 120.96178436279297 609.7039184570312 120.82511901855469 609.2706298828125 120.69845581054688 C 608.8372802734375 120.56511688232422 608.437255859375 120.40178680419922 608.0706176757812 120.20845031738281 C 607.3439331054688 119.82845306396484 606.7973022460938 119.42511749267578 606.4306030273438 118.99845123291016 C 606.06396484375 118.57178497314453 605.880615234375 118.00845336914062 605.880615234375 117.3084487915039 C 605.880615234375 116.72845458984375 606.0006103515625 116.22178649902344 606.2406005859375 115.7884521484375 C 606.4805908203125 115.34844970703125 606.7939453125 114.97845458984375 607.1806030273438 114.67845153808594 C 607.5672607421875 114.38511657714844 608.0072631835938 114.16178894042969 608.5006103515625 114.00845336914062 C 608.9939575195312 113.86178588867188 609.4939575195312 113.7884521484375 610.0006103515625 113.7884521484375 C 610.687255859375 113.7884521484375 611.3206176757812 113.85845184326172 611.900634765625 113.99845123291016 C 612.4739379882812 114.1451187133789 613.0306396484375 114.39178466796875 613.5706176757812 114.73844909667969 L 612.7606201171875 116.4384536743164 C 612.3472900390625 116.20511627197266 611.900634765625 116.04512023925781 611.4205932617188 115.95845031738281 C 610.9406127929688 115.87178802490234 610.46728515625 115.82845306396484 610.0006103515625 115.82845306396484 C 609.4939575195312 115.82845306396484 609.0939331054688 115.94178771972656 608.8005981445312 116.16844940185547 C 608.5006103515625 116.3951187133789 608.3505859375 116.74845123291016 608.3505859375 117.22845458984375 C 608.3505859375 117.5951156616211 608.4873046875 117.88511657714844 608.7606201171875 118.09844970703125 C 609.0272827148438 118.31178283691406 609.3739624023438 118.50178527832031 609.8005981445312 118.66844940185547 C 610.227294921875 118.83512115478516 610.6806030273438 118.99845123291016 611.16064453125 119.15845489501953 C 611.640625 119.32511901855469 612.0906372070312 119.53511810302734 612.5106201171875 119.7884521484375 C 612.9239501953125 120.04178619384766 613.2706298828125 120.36178588867188 613.5505981445312 120.74845123291016 C 613.823974609375 121.13511657714844 613.9606323242188 121.62844848632812 613.9606323242188 122.22845458984375 C 613.9606323242188 122.82178497314453 613.8439331054688 123.33845520019531 613.610595703125 123.77845001220703 C 613.3772583007812 124.21845245361328 613.0606079101562 124.581787109375 612.66064453125 124.86845397949219 C 612.2606201171875 125.15512084960938 611.8005981445312 125.36845397949219 611.2806396484375 125.50845336914062 C 610.7606201171875 125.64178466796875 610.2039184570312 125.70845031738281 609.610595703125 125.70845031738281 C 609.2572631835938 125.70845031738281 608.9273071289062 125.69844818115234 608.62060546875 125.67845153808594 C 608.3206176757812 125.65845489501953 608.0272827148438 125.61511993408203 607.7406005859375 125.54845428466797 C 607.447265625 125.4817886352539 607.1572875976562 125.37844848632812 606.87060546875 125.23844909667969 C 606.5839233398438 125.09844970703125 606.2672729492188 124.91178894042969 605.9205932617188 124.67845153808594 ZM 626.2815551757812 122.00845336914062 L 626.2815551757812 122.16844940185547 C 626.2815551757812 122.28178405761719 626.2915649414062 122.44178771972656 626.3115234375 122.64845275878906 C 626.3248901367188 122.86178588867188 626.3515625 123.07845306396484 626.3915405273438 123.29845428466797 C 626.4315795898438 123.5184555053711 626.494873046875 123.71845245361328 626.58154296875 123.89845275878906 C 626.6748657226562 124.07845306396484 626.7948608398438 124.19512176513672 626.9415283203125 124.24845123291016 L 626.2815551757812 125.62844848632812 C 626.1082153320312 125.62844848632812 625.9215698242188 125.58845520019531 625.7215576171875 125.50845336914062 C 625.5215454101562 125.42178344726562 625.3282470703125 125.30511474609375 625.1415405273438 125.15845489501953 C 624.9548950195312 125.00511932373047 624.7982177734375 124.83512115478516 624.6715698242188 124.64845275878906 C 624.5382080078125 124.46178436279297 624.438232421875 124.25845336914062 624.37158203125 124.0384521484375 C 624.2781982421875 124.27178192138672 624.1082153320312 124.48844909667969 623.861572265625 124.6884536743164 C 623.62158203125 124.8884506225586 623.3515625 125.06845092773438 623.0515747070312 125.22845458984375 C 622.7515258789062 125.3884506225586 622.4248657226562 125.50845336914062 622.071533203125 125.58845520019531 C 621.7249145507812 125.66844940185547 621.398193359375 125.70845031738281 621.091552734375 125.70845031738281 C 620.6248779296875 125.70845031738281 620.17822265625 125.64845275878906 619.7515258789062 125.52845001220703 C 619.3182373046875 125.40178680419922 618.9348754882812 125.2017822265625 618.6015625 124.92845153808594 C 618.27490234375 124.65512084960938 618.0182495117188 124.29178619384766 617.83154296875 123.83845520019531 C 617.6448974609375 123.38511657714844 617.5515747070312 122.82845306396484 617.5515747070312 122.16844940185547 C 617.5515747070312 121.53511810302734 617.6848754882812 120.98844909667969 617.9515380859375 120.52845001220703 C 618.2249145507812 120.06845092773438 618.5682373046875 119.69178771972656 618.9815673828125 119.39845275878906 C 619.4015502929688 119.10511779785156 619.8815307617188 118.88511657714844 620.4215698242188 118.73844909667969 C 620.9548950195312 118.59844970703125 621.494873046875 118.52845001220703 622.0415649414062 118.52845001220703 L 623.7915649414062 118.52845001220703 C 623.7915649414062 117.85511779785156 623.7582397460938 117.31845092773438 623.6915283203125 116.91844940185547 C 623.6248779296875 116.51844787597656 623.5082397460938 116.2251205444336 623.341552734375 116.0384521484375 C 623.1748657226562 115.85845184326172 622.9715576171875 115.74178314208984 622.7315673828125 115.6884536743164 C 622.4915771484375 115.64178466796875 622.2081909179688 115.61845397949219 621.8815307617188 115.61845397949219 C 621.5748901367188 115.61845397949219 621.2882080078125 115.65512084960938 621.0215454101562 115.72845458984375 C 620.7548828125 115.8084487915039 620.5082397460938 115.89845275878906 620.2815551757812 115.99845123291016 C 620.0548706054688 116.10511779785156 619.8548583984375 116.21845245361328 619.6815795898438 116.33845520019531 C 619.514892578125 116.46511840820312 619.3882446289062 116.56178283691406 619.3015747070312 116.62844848632812 L 618.3815307617188 115.20845031738281 C 618.514892578125 115.05511474609375 618.7182006835938 114.90178680419922 618.9915771484375 114.74845123291016 C 619.2715454101562 114.58845520019531 619.5881958007812 114.44512176513672 619.9415283203125 114.31845092773438 C 620.3015747070312 114.19845581054688 620.6915283203125 114.09844970703125 621.111572265625 114.01844787597656 C 621.52490234375 113.94512176513672 621.9581909179688 113.90845489501953 622.4115600585938 113.90845489501953 C 622.8248901367188 113.90845489501953 623.2282104492188 113.9517822265625 623.62158203125 114.0384521484375 C 624.0082397460938 114.11845397949219 624.3648681640625 114.25511932373047 624.6915283203125 114.44845581054688 C 625.0115356445312 114.64178466796875 625.2915649414062 114.89845275878906 625.5315551757812 115.21845245361328 C 625.7715454101562 115.5384521484375 625.9415283203125 115.9384536743164 626.0415649414062 116.41844940185547 C 626.1348876953125 116.90512084960938 626.1982421875 117.39178466796875 626.2315673828125 117.87844848632812 C 626.264892578125 118.36511993408203 626.2815551757812 118.84844970703125 626.2815551757812 119.32845306396484 L 626.2815551757812 122.00845336914062 M 623.8115234375 119.98844909667969 L 622.5015258789062 119.98844909667969 C 622.2215576171875 119.98844909667969 621.9315795898438 120.01512145996094 621.6315307617188 120.06845092773438 C 621.33154296875 120.12178802490234 621.0515747070312 120.2251205444336 620.7915649414062 120.37844848632812 C 620.52490234375 120.53178405761719 620.3082275390625 120.74845123291016 620.1415405273438 121.02845001220703 C 619.9682006835938 121.3084487915039 619.8815307617188 121.66844940185547 619.8815307617188 122.10845184326172 C 619.8815307617188 122.79512023925781 620.034912109375 123.2884521484375 620.341552734375 123.58845520019531 C 620.6549072265625 123.8884506225586 621.1048583984375 124.0384521484375 621.6915283203125 124.0384521484375 C 622.1048583984375 124.0384521484375 622.5015258789062 123.9317855834961 622.8815307617188 123.71845245361328 C 623.2548828125 123.49845123291016 623.5648803710938 123.2017822265625 623.8115234375 122.82845306396484 L 623.8115234375 119.98844909667969 ZM 637.35302734375 125.60845184326172 L 634.843017578125 125.60845184326172 L 634.843017578125 119.2884521484375 C 634.843017578125 118.82178497314453 634.822998046875 118.3751220703125 634.7830200195312 117.94845581054688 C 634.736328125 117.52178192138672 634.6396484375 117.1451187133789 634.4930419921875 116.81845092773438 C 634.3396606445312 116.48512268066406 634.1329956054688 116.2251205444336 633.8729858398438 116.0384521484375 C 633.613037109375 115.85845184326172 633.2496948242188 115.76844787597656 632.7830200195312 115.76844787597656 C 632.6296997070312 115.76844787597656 632.4329833984375 115.7884521484375 632.1929931640625 115.82845306396484 C 631.9530029296875 115.86845397949219 631.7063598632812 115.92845153808594 631.4530029296875 116.00845336914062 C 631.19970703125 116.0951156616211 630.9596557617188 116.19845581054688 630.7330322265625 116.31845092773438 C 630.50634765625 116.44512176513672 630.3363647460938 116.58845520019531 630.2230224609375 116.74845123291016 L 630.2230224609375 116.87844848632812 L 630.2230224609375 116.91844940185547 L 630.2230224609375 121.48844909667969 L 630.2230224609375 121.52845001220703 L 630.2230224609375 125.60845184326172 L 627.7330322265625 125.60845184326172 L 627.7330322265625 113.98844909667969 L 629.9630126953125 113.98844909667969 L 630.2230224609375 115.16844940185547 C 630.3897094726562 115.01512145996094 630.5996704101562 114.85845184326172 630.85302734375 114.69845581054688 C 631.1063232421875 114.54512023925781 631.3863525390625 114.40512084960938 631.6929931640625 114.27845001220703 C 631.9930419921875 114.15845489501953 632.2996826171875 114.0584487915039 632.613037109375 113.97845458984375 C 632.9329833984375 113.90512084960938 633.2430419921875 113.86845397949219 633.5430297851562 113.86845397949219 C 634.1630249023438 113.86845397949219 634.6829833984375 113.99845123291016 635.10302734375 114.25845336914062 C 635.5296630859375 114.51844787597656 635.9563598632812 114.85511779785156 636.3829956054688 115.26844787597656 C 636.6163330078125 115.50178527832031 636.7996826171875 115.77178192138672 636.9329833984375 116.07845306396484 C 637.0596923828125 116.39178466796875 637.1563720703125 116.71511840820312 637.2230224609375 117.04845428466797 C 637.2830200195312 117.3884506225586 637.3197021484375 117.72845458984375 637.3330078125 118.06845092773438 C 637.3463745117188 118.41511535644531 637.35302734375 118.75178527832031 637.35302734375 119.07845306396484 L 637.35302734375 125.19844818115234 L 637.35302734375 125.60845184326172 ZM 639.084716796875 124.4384536743164 C 638.5647583007812 123.8451156616211 638.181396484375 123.11511993408203 637.9347534179688 122.24845123291016 C 637.6880493164062 121.3884506225586 637.5647583007812 120.51844787597656 637.5647583007812 119.6384506225586 C 637.5647583007812 118.56511688232422 637.71142578125 117.66511535644531 638.0046997070312 116.9384536743164 C 638.3047485351562 116.21178436279297 638.6880493164062 115.62178802490234 639.1547241210938 115.16844940185547 C 639.6213989257812 114.71511840820312 640.1380615234375 114.3884506225586 640.7047119140625 114.1884536743164 C 641.278076171875 113.98844909667969 641.8380737304688 113.8884506225586 642.3847045898438 113.8884506225586 C 643.0580444335938 113.8884506225586 643.67138671875 114.00511932373047 644.2247314453125 114.23844909667969 C 644.7847290039062 114.47178649902344 645.201416015625 114.78178405761719 645.4747314453125 115.16844940185547 L 645.4747314453125 109.60845184326172 L 647.9847412109375 109.60845184326172 L 647.9847412109375 125.60845184326172 L 645.61474609375 125.60845184326172 C 645.5880737304688 125.3751220703125 645.5647583007812 125.1384506225586 645.5447387695312 124.89845275878906 C 645.5247192382812 124.65845489501953 645.5014038085938 124.43511962890625 645.4747314453125 124.22845458984375 C 645.4347534179688 124.40845489501953 645.3147583007812 124.58845520019531 645.11474609375 124.7684555053711 C 644.9147338867188 124.94178771972656 644.661376953125 125.1017837524414 644.354736328125 125.24845123291016 C 644.0413818359375 125.3951187133789 643.6947021484375 125.50845336914062 643.3147583007812 125.58845520019531 C 642.9280395507812 125.66844940185547 642.528076171875 125.70845031738281 642.11474609375 125.70845031738281 C 641.5680541992188 125.70845031738281 641.028076171875 125.61178588867188 640.4947509765625 125.41844940185547 C 639.9680786132812 125.2317886352539 639.498046875 124.90512084960938 639.084716796875 124.4384536743164 M 640.2047119140625 119.81845092773438 C 640.2047119140625 120.37178802490234 640.2714233398438 120.88511657714844 640.4047241210938 121.35845184326172 C 640.5447387695312 121.831787109375 640.7313842773438 122.2451171875 640.9647216796875 122.59844970703125 C 641.1980590820312 122.95845031738281 641.4813842773438 123.24178314208984 641.8147583007812 123.44844818115234 C 642.1547241210938 123.65512084960938 642.5214233398438 123.75845336914062 642.9147338867188 123.75845336914062 C 643.3413696289062 123.75845336914062 643.7247314453125 123.65178680419922 644.0647583007812 123.4384536743164 C 644.3980712890625 123.2251205444336 644.681396484375 122.9384536743164 644.9147338867188 122.57845306396484 C 645.1480712890625 122.2251205444336 645.3280639648438 121.8084487915039 645.4547119140625 121.32845306396484 C 645.57470703125 120.84844970703125 645.6347045898438 120.331787109375 645.6347045898438 119.77845001220703 C 645.6347045898438 119.2317886352539 645.5714111328125 118.71845245361328 645.4447021484375 118.23844909667969 C 645.3114013671875 117.75845336914062 645.124755859375 117.33845520019531 644.8847045898438 116.97845458984375 C 644.6447143554688 116.61845397949219 644.3580322265625 116.33512115478516 644.0247192382812 116.12844848632812 C 643.6847534179688 115.91511535644531 643.3013916015625 115.8084487915039 642.874755859375 115.8084487915039 C 642.4547119140625 115.8084487915039 642.0780639648438 115.91511535644531 641.7447509765625 116.12844848632812 C 641.4180908203125 116.33512115478516 641.1414184570312 116.6251220703125 640.9147338867188 116.99845123291016 C 640.6880493164062 117.37178802490234 640.5114135742188 117.79845428466797 640.3847045898438 118.27845001220703 C 640.2647094726562 118.75845336914062 640.2047119140625 119.27178192138672 640.2047119140625 119.81845092773438 ZM 654.8780517578125 112.3084487915039 L 654.8780517578125 117.07845306396484 L 661.2180786132812 117.07845306396484 L 661.2180786132812 118.76844787597656 L 654.8780517578125 118.76844787597656 L 654.8780517578125 123.73844909667969 L 661.8580932617188 123.73844909667969 L 661.8580932617188 125.60845184326172 L 652.3681030273438 125.60845184326172 L 652.3681030273438 110.42845153808594 L 661.8580932617188 110.42845153808594 L 661.8580932617188 112.3084487915039 L 654.8780517578125 112.3084487915039 ZM 673.2962036132812 113.98844909667969 L 669.4862060546875 119.77845001220703 L 673.2761840820312 125.60845184326172 L 670.4161987304688 125.60845184326172 L 668.0662231445312 121.44845581054688 L 667.856201171875 121.44845581054688 L 665.326171875 125.60845184326172 L 662.4661865234375 125.60845184326172 L 666.2562255859375 119.77845001220703 L 662.4462280273438 113.98844909667969 L 665.2661743164062 113.98844909667969 L 667.6561889648438 118.16844940185547 L 667.856201171875 118.16844940185547 L 670.4761962890625 113.98844909667969 L 673.2962036132812 113.98844909667969 ZM 679.3152465820312 113.92845153808594 C 680.115234375 113.92845153808594 680.8352661132812 114.08512115478516 681.4752197265625 114.39845275878906 C 682.1218872070312 114.70511627197266 682.6719360351562 115.1251220703125 683.125244140625 115.65845489501953 C 683.5785522460938 116.19845581054688 683.9285888671875 116.82511901855469 684.1752319335938 117.5384521484375 C 684.4219360351562 118.25178527832031 684.5452270507812 119.01844787597656 684.5452270507812 119.83845520019531 C 684.5452270507812 120.66511535644531 684.4152221679688 121.4384536743164 684.1552734375 122.15845489501953 C 683.895263671875 122.87844848632812 683.528564453125 123.50178527832031 683.0552368164062 124.02845001220703 C 682.5819091796875 124.56178283691406 682.0185546875 124.9751205444336 681.365234375 125.2684555053711 C 680.7119140625 125.56178283691406 679.9885864257812 125.70845031738281 679.1952514648438 125.70845031738281 C 678.3818969726562 125.70845031738281 677.6419067382812 125.5584487915039 676.9752197265625 125.25845336914062 C 676.30859375 124.95845031738281 675.7452392578125 124.5384521484375 675.2852172851562 123.99845123291016 C 674.8252563476562 123.46511840820312 674.471923828125 122.84178161621094 674.2252197265625 122.12844848632812 C 673.9785766601562 121.41511535644531 673.855224609375 120.6384506225586 673.855224609375 119.79845428466797 C 673.855224609375 118.96511840820312 673.9885864257812 118.1817855834961 674.2552490234375 117.44845581054688 C 674.528564453125 116.72178649902344 674.9019165039062 116.1017837524414 675.375244140625 115.58845520019531 C 675.8485717773438 115.07511901855469 676.4219360351562 114.66844940185547 677.09521484375 114.36845397949219 C 677.7685546875 114.07511901855469 678.5086059570312 113.92845153808594 679.3152465820312 113.92845153808594 M 679.1552734375 123.75845336914062 C 679.5618896484375 123.75845336914062 679.9352416992188 123.65845489501953 680.2752685546875 123.45845031738281 C 680.6085815429688 123.25845336914062 680.895263671875 122.9817886352539 681.13525390625 122.62844848632812 C 681.375244140625 122.28178405761719 681.568603515625 121.86845397949219 681.7152709960938 121.3884506225586 C 681.8619384765625 120.90845489501953 681.9352416992188 120.39178466796875 681.9352416992188 119.83845520019531 C 681.9352416992188 119.29178619384766 681.8685913085938 118.77845001220703 681.7352294921875 118.29845428466797 C 681.6085815429688 117.81845092773438 681.431884765625 117.3951187133789 681.2052612304688 117.02845001220703 C 680.9785766601562 116.66844940185547 680.6986083984375 116.37844848632812 680.365234375 116.15845489501953 C 680.03857421875 115.9384536743164 679.6685791015625 115.82845306396484 679.2552490234375 115.82845306396484 C 678.8419189453125 115.82845306396484 678.4652709960938 115.9317855834961 678.125244140625 116.1384506225586 C 677.778564453125 116.33845520019531 677.4852294921875 116.61511993408203 677.2452392578125 116.96845245361328 C 677.0052490234375 117.32178497314453 676.818603515625 117.73511505126953 676.6852416992188 118.20845031738281 C 676.55859375 118.6817855834961 676.4952392578125 119.19178771972656 676.4952392578125 119.73844909667969 C 676.4952392578125 120.28511810302734 676.5519409179688 120.80511474609375 676.6652221679688 121.29845428466797 C 676.7852172851562 121.78511810302734 676.9619140625 122.20511627197266 677.1952514648438 122.5584487915039 C 677.4285888671875 122.91844940185547 677.7052612304688 123.20845031738281 678.0252685546875 123.42845153808594 C 678.3519287109375 123.64845275878906 678.7285766601562 123.75845336914062 679.1552734375 123.75845336914062 ZM 688.6136474609375 122.08845520019531 C 688.6136474609375 122.55511474609375 688.6736450195312 122.91844940185547 688.7936401367188 123.17845153808594 C 688.9202880859375 123.4384536743164 689.096923828125 123.6384506225586 689.3236083984375 123.77845001220703 C 689.55029296875 123.91178894042969 689.8036499023438 123.9951171875 690.0836181640625 124.02845001220703 C 690.3636474609375 124.06845092773438 690.6636352539062 124.08845520019531 690.983642578125 124.08845520019531 L 690.983642578125 125.60845184326172 C 690.8036499023438 125.63511657714844 690.6235961914062 125.65512084960938 690.443603515625 125.66844940185547 C 690.290283203125 125.6817855834961 690.10693359375 125.69178771972656 689.8936157226562 125.69844818115234 C 689.6869506835938 125.70511627197266 689.4802856445312 125.70845031738281 689.2736206054688 125.70845031738281 C 689.0669555664062 125.70845031738281 688.85693359375 125.7017822265625 688.6436157226562 125.6884536743164 C 688.4302978515625 125.67511749267578 688.2469482421875 125.65512084960938 688.0936279296875 125.62844848632812 C 687.626953125 125.54845428466797 687.2636108398438 125.3451156616211 687.0036010742188 125.0184555053711 C 686.7435913085938 124.69844818115234 686.5469360351562 124.34178161621094 686.4136352539062 123.94844818115234 C 686.2869262695312 123.56178283691406 686.2069702148438 123.1817855834961 686.1736450195312 122.8084487915039 C 686.1402587890625 122.43511962890625 686.1235961914062 122.1451187133789 686.1235961914062 121.9384536743164 L 686.1235961914062 115.67845153808594 L 684.5936279296875 115.67845153808594 L 684.5936279296875 113.98844909667969 L 686.1235961914062 113.98844909667969 L 686.1235961914062 110.69845581054688 L 688.6136474609375 110.69845581054688 L 688.6136474609375 113.98844909667969 L 690.463623046875 113.98844909667969 L 690.463623046875 115.67845153808594 L 688.6136474609375 115.67845153808594 L 688.6136474609375 122.08845520019531 ZM 693.9068603515625 125.60845184326172 L 691.3968505859375 125.60845184326172 L 691.3968505859375 113.98844909667969 L 693.9068603515625 113.98844909667969 L 693.9068603515625 125.60845184326172 M 694.1368408203125 110.2884521484375 C 694.1368408203125 110.69512176513672 693.9935302734375 111.04178619384766 693.7068481445312 111.32845306396484 C 693.4135131835938 111.60845184326172 693.0635375976562 111.74845123291016 692.6568603515625 111.74845123291016 C 692.2435302734375 111.74845123291016 691.8968505859375 111.60511779785156 691.6168212890625 111.31845092773438 C 691.3302001953125 111.02511596679688 691.1868286132812 110.6817855834961 691.1868286132812 110.2884521484375 C 691.1868286132812 109.8751220703125 691.33349609375 109.52511596679688 691.6268310546875 109.23844909667969 C 691.9135131835938 108.94511413574219 692.2568359375 108.79845428466797 692.6568603515625 108.79845428466797 C 693.0635375976562 108.79845428466797 693.4135131835938 108.94511413574219 693.7068481445312 109.23844909667969 C 693.9935302734375 109.52511596679688 694.1368408203125 109.8751220703125 694.1368408203125 110.2884521484375 ZM 703.5345458984375 123.97845458984375 C 703.06787109375 124.57178497314453 702.5612182617188 125.00845336914062 702.0145263671875 125.2884521484375 C 701.461181640625 125.56845092773438 700.76123046875 125.70845031738281 699.91455078125 125.70845031738281 C 699.1011962890625 125.70845031738281 698.3645629882812 125.55511474609375 697.7045288085938 125.24845123291016 C 697.0445556640625 124.94178771972656 696.481201171875 124.52178192138672 696.0145263671875 123.98844909667969 C 695.5478515625 123.46178436279297 695.1945190429688 122.84178161621094 694.9545288085938 122.12844848632812 C 694.7145385742188 121.41511535644531 694.5945434570312 120.6384506225586 694.5945434570312 119.79845428466797 C 694.5945434570312 118.97845458984375 694.7245483398438 118.21178436279297 694.9845581054688 117.49845123291016 C 695.2445678710938 116.77845001220703 695.6078491210938 116.15512084960938 696.0745239257812 115.62844848632812 C 696.5411987304688 115.1017837524414 697.1045532226562 114.6884536743164 697.7645263671875 114.3884506225586 C 698.424560546875 114.081787109375 699.1611938476562 113.92845153808594 699.9745483398438 113.92845153808594 C 700.8212280273438 113.92845153808594 701.5478515625 114.06845092773438 702.154541015625 114.34844970703125 C 702.76123046875 114.63511657714844 703.2978515625 115.07178497314453 703.7645263671875 115.65845489501953 L 702.64453125 116.99845123291016 C 702.4111938476562 116.7251205444336 702.0911865234375 116.4751205444336 701.6845703125 116.24845123291016 C 701.2711791992188 116.02178192138672 700.7078857421875 115.90845489501953 699.9945678710938 115.90845489501953 C 699.5812377929688 115.90845489501953 699.2045288085938 116.00511932373047 698.8645629882812 116.19845581054688 C 698.5178833007812 116.39178466796875 698.2245483398438 116.65845489501953 697.9845581054688 116.99845123291016 C 697.7445678710938 117.3451156616211 697.557861328125 117.75178527832031 697.424560546875 118.21845245361328 C 697.2978515625 118.68511962890625 697.2345581054688 119.19178771972656 697.2345581054688 119.73844909667969 C 697.2345581054688 120.28511810302734 697.2911987304688 120.79512023925781 697.404541015625 121.26844787597656 C 697.5245361328125 121.74845123291016 697.7012329101562 122.16511535644531 697.9345703125 122.5184555053711 C 698.1678466796875 122.87844848632812 698.4445190429688 123.16178894042969 698.7645263671875 123.36845397949219 C 699.0911865234375 123.56845092773438 699.4645385742188 123.66844940185547 699.884521484375 123.66844940185547 C 700.5045166015625 123.66844940185547 701.0245361328125 123.57178497314453 701.4445190429688 123.37844848632812 C 701.8645629882812 123.17845153808594 702.251220703125 122.9317855834961 702.6045532226562 122.6384506225586 L 703.5345458984375 123.97845458984375 ZM 704.257080078125 124.67845153808594 L 705.3170776367188 123.00845336914062 C 705.5904541015625 123.2017822265625 705.9137573242188 123.38178253173828 706.287109375 123.54845428466797 C 706.6671142578125 123.71511840820312 707.143798828125 123.79845428466797 707.7171020507812 123.79845428466797 C 708.4771118164062 123.79845428466797 709.0704345703125 123.6817855834961 709.4971313476562 123.44844818115234 C 709.9171142578125 123.21511840820312 710.1270751953125 122.87178802490234 710.1270751953125 122.41844940185547 C 710.1270751953125 122.08512115478516 710.0037841796875 121.81845092773438 709.757080078125 121.61845397949219 C 709.5104370117188 121.42511749267578 709.200439453125 121.25511932373047 708.8270874023438 121.10845184326172 C 708.4470825195312 120.96178436279297 708.0404052734375 120.82511901855469 707.6071166992188 120.69845581054688 C 707.1737670898438 120.56511688232422 706.7737426757812 120.40178680419922 706.4071044921875 120.20845031738281 C 705.680419921875 119.82845306396484 705.1337890625 119.42511749267578 704.76708984375 118.99845123291016 C 704.4004516601562 118.57178497314453 704.2171020507812 118.00845336914062 704.2171020507812 117.3084487915039 C 704.2171020507812 116.72845458984375 704.3370971679688 116.22178649902344 704.5770874023438 115.7884521484375 C 704.8170776367188 115.34844970703125 705.1304321289062 114.97845458984375 705.51708984375 114.67845153808594 C 705.9037475585938 114.38511657714844 706.34375 114.16178894042969 706.8370971679688 114.00845336914062 C 707.3304443359375 113.86178588867188 707.8304443359375 113.7884521484375 708.3370971679688 113.7884521484375 C 709.0237426757812 113.7884521484375 709.6571044921875 113.85845184326172 710.2371215820312 113.99845123291016 C 710.8104248046875 114.1451187133789 711.3671264648438 114.39178466796875 711.9071044921875 114.73844909667969 L 711.0971069335938 116.4384536743164 C 710.6837768554688 116.20511627197266 710.2371215820312 116.04512023925781 709.757080078125 115.95845031738281 C 709.277099609375 115.87178802490234 708.8037719726562 115.82845306396484 708.3370971679688 115.82845306396484 C 707.8304443359375 115.82845306396484 707.430419921875 115.94178771972656 707.1370849609375 116.16844940185547 C 706.8370971679688 116.3951187133789 706.6870727539062 116.74845123291016 706.6870727539062 117.22845458984375 C 706.6870727539062 117.5951156616211 706.8237915039062 117.88511657714844 707.0971069335938 118.09844970703125 C 707.36376953125 118.31178283691406 707.71044921875 118.50178527832031 708.1370849609375 118.66844940185547 C 708.5637817382812 118.83512115478516 709.01708984375 118.99845123291016 709.4971313476562 119.15845489501953 C 709.9771118164062 119.32511901855469 710.4271240234375 119.53511810302734 710.8471069335938 119.7884521484375 C 711.2604370117188 120.04178619384766 711.6071166992188 120.36178588867188 711.8870849609375 120.74845123291016 C 712.1604614257812 121.13511657714844 712.297119140625 121.62844848632812 712.297119140625 122.22845458984375 C 712.297119140625 122.82178497314453 712.180419921875 123.33845520019531 711.9470825195312 123.77845001220703 C 711.7137451171875 124.21845245361328 711.3970947265625 124.581787109375 710.9971313476562 124.86845397949219 C 710.5971069335938 125.15512084960938 710.1370849609375 125.36845397949219 709.6171264648438 125.50845336914062 C 709.0971069335938 125.64178466796875 708.5404052734375 125.70845031738281 707.9470825195312 125.70845031738281 C 707.59375 125.70845031738281 707.2637939453125 125.69844818115234 706.9570922851562 125.67845153808594 C 706.6571044921875 125.65845489501953 706.36376953125 125.61511993408203 706.0770874023438 125.54845428466797 C 705.7837524414062 125.4817886352539 705.4937744140625 125.37844848632812 705.2070922851562 125.23844909667969 C 704.92041015625 125.09844970703125 704.603759765625 124.91178894042969 704.257080078125 124.67845153808594 Z" transform="matrix(2.9838404655456543, 0, 0, 2.9838404655456543, -1393.6943359375, 283.00115966796875)" style="fill: rgb(0, 0, 0); white-space: pre; color: rgb(0, 0, 0);"/></svg>